<svg width="118" height="39" viewBox="0 0 118 39" fill="none" xmlns="http://www.w3.org/2000/svg">
<path fill-rule="evenodd" clip-rule="evenodd" d="M54.8842 10.7853C53.724 10.7842 52.5835 11.0933 51.5744 11.6822V10.7853H48.1724V28.8276H51.5744V23.6941C52.4681 24.2148 53.4661 24.5176 54.4915 24.5792C55.5169 24.6408 56.5424 24.4596 57.4889 24.0494C58.4355 23.6392 59.2779 23.0111 59.9512 22.2134C60.6246 21.4157 61.1109 20.4697 61.3728 19.4482C61.6347 18.4267 61.6652 17.3571 61.4619 16.3216C61.2585 15.2861 60.8268 14.3124 60.2 13.4756C59.5732 12.6387 58.7679 11.961 57.8463 11.4945C56.9247 11.0281 55.9113 10.7855 54.8842 10.7853V10.7853ZM78.243 24.2236H81.645V17.0575C81.645 15.6861 82.2998 14.9943 83.9725 14.6515L85.7584 14.4678V11.1526C83.3445 11.1526 83.0022 11.3424 81.642 12.0709V11.1526H78.243V24.2236ZM103.292 16.1239H109.415C109.132 15.5374 108.696 15.0438 108.155 14.6988C107.614 14.3537 106.99 14.1708 106.354 14.1708C105.717 14.1708 105.093 14.3537 104.552 14.6988C104.011 15.0438 103.575 15.5374 103.292 16.1239V16.1239ZM109.629 18.7013H103.081C103.263 19.324 103.609 19.8826 104.081 20.3151C104.553 20.7477 105.132 21.0373 105.754 21.1517C106.376 21.2662 107.017 21.2011 107.606 20.9636C108.194 20.7261 108.707 20.3256 109.087 19.8064H112.745C112.227 21.4593 111.121 22.8501 109.649 23.7012C108.177 24.5524 106.446 24.8012 104.804 24.3981C103.161 23.9949 101.727 22.9695 100.787 21.5264C99.8472 20.0834 99.4711 18.3288 99.7339 16.6131C99.9967 14.8974 100.879 13.3468 102.205 12.2707C103.53 11.1946 105.202 10.6723 106.885 10.808C108.569 10.9437 110.141 11.7275 111.287 13.0028C112.434 14.2782 113.07 15.9513 113.07 17.6881C113.069 18.0271 113.045 18.3657 112.998 18.7013H109.629ZM114.225 6.55171H117.621V24.2236H114.225V6.55171V6.55171ZM92.5624 10.7853C91.2845 10.7842 90.0328 11.1584 88.9546 11.8638C87.8763 12.5692 87.0163 13.5765 86.4756 14.7674C85.9348 15.9583 85.7359 17.2831 85.9022 18.5863C86.0685 19.8894 86.593 21.1166 87.4142 22.1237C88.2354 23.1308 89.319 23.8758 90.5377 24.2712C91.7565 24.6666 93.0596 24.6959 94.294 24.3558C95.5284 24.0156 96.6427 23.3201 97.5059 22.351C98.3692 21.3819 98.9455 20.1794 99.167 18.885H95.7799C95.5092 19.6552 94.9857 20.3042 94.2996 20.7199C93.6135 21.1356 92.8079 21.2921 92.0216 21.1623C91.2354 21.0325 90.5178 20.6246 89.9927 20.0089C89.4676 19.3932 89.1678 18.6084 89.1451 17.7897C89.1225 16.9711 89.3782 16.1699 89.8684 15.5245C90.3586 14.8791 91.0524 14.4298 91.8302 14.2541C92.608 14.0785 93.421 14.1875 94.129 14.5623C94.837 14.9372 95.3956 15.5544 95.7085 16.3075H99.1403C98.8279 14.7508 98.0029 13.3526 96.8046 12.3488C95.6063 11.345 94.1079 10.7971 92.5624 10.7975V10.7853ZM72.1592 11.1526H75.6922V17.1157C75.7071 17.2993 75.716 17.4861 75.716 17.6759C75.716 17.8657 75.716 18.0524 75.6922 18.2391V24.2236H72.1592V23.7828C71.1365 24.3422 69.9904 24.6198 68.8325 24.5886C67.6746 24.5575 66.5442 24.2186 65.5513 23.6051C64.5584 22.9915 63.7368 22.1242 63.1664 21.0873C62.596 20.0505 62.2962 18.8794 62.2962 17.6881C62.2962 16.4968 62.596 15.3258 63.1664 14.2889C63.7368 13.2521 64.5584 12.3847 65.5513 11.7711C66.5442 11.1576 67.6746 10.8188 68.8325 10.7876C69.9904 10.7565 71.1365 11.0341 72.1592 11.5934V11.1526ZM69.0042 14.1709C68.3277 14.1703 67.6662 14.376 67.1034 14.7621C66.5406 15.1483 66.1018 15.6974 65.8425 16.34C65.5832 16.9826 65.5151 17.6899 65.6467 18.3724C65.7783 19.0549 66.1038 19.6819 66.582 20.1741C67.0601 20.6663 67.6695 21.0016 68.333 21.1375C68.9964 21.2735 69.6842 21.204 70.3093 20.9379C70.9344 20.6718 71.4687 20.221 71.8446 19.6425C72.2205 19.064 72.4211 18.3839 72.4211 17.6881C72.4211 16.7558 72.0612 15.8617 71.4205 15.2021C70.7798 14.5426 69.9107 14.1717 69.0042 14.1709V14.1709ZM51.5744 16.8096V18.5667C51.7824 19.3957 52.2772 20.1182 52.9661 20.5988C53.655 21.0795 54.4906 21.2852 55.3165 21.1774C56.1423 21.0696 56.9015 20.6557 57.4519 20.0134C58.0022 19.371 58.3058 18.5443 58.3058 17.6881C58.3058 16.832 58.0022 16.0052 57.4519 15.3629C56.9015 14.7205 56.1423 14.3066 55.3165 14.1989C54.4906 14.0911 53.655 14.2968 52.9661 14.7774C52.2772 15.258 51.7824 15.9806 51.5744 16.8096V16.8096Z" fill="white"/>
<rect width="39" height="39" rx="19.5" fill="white"/>
<path fill-rule="evenodd" clip-rule="evenodd" d="M27 11.9267V18.4453L19.475 23.0268V6.69757L27 11.9267Z" fill="#6590F9"/>
<path fill-rule="evenodd" clip-rule="evenodd" d="M19.4752 23.0289V32.3094L11.9502 27.6084L19.4752 23.0289Z" fill="#537AE3"/>
<path fill-rule="evenodd" clip-rule="evenodd" d="M19.4752 6.69757V23.0268L11.9502 27.6044V11.9248L19.4752 6.69757Z" fill="#2962EF"/>
</svg>
