<svg width="12" height="12" viewBox="0 0 12 12" fill="none" xmlns="http://www.w3.org/2000/svg">
<path d="M11.577 7.18463V11.0919C11.577 11.1879 11.4947 11.2701 11.3988 11.2701H9.38345C9.28749 11.2701 9.20523 11.1879 9.20523 11.0919V7.45882C9.20523 6.49914 8.86249 5.84108 7.99878 5.84108C7.34071 5.84108 6.95684 6.27979 6.77862 6.70479C6.71007 6.8556 6.69636 7.07495 6.69636 7.2806V11.0919C6.69636 11.1879 6.6141 11.2701 6.51813 11.2701H4.51652C4.42055 11.2701 4.33829 11.1879 4.33829 11.0919C4.33829 10.1185 4.36571 5.41608 4.33829 4.3193C4.33829 4.22334 4.42055 4.14108 4.51652 4.14108H6.53184C6.62781 4.14108 6.71007 4.22334 6.71007 4.3193V5.1556C6.71007 5.16931 6.69636 5.1693 6.69636 5.18301H6.71007V5.1556C7.02539 4.67576 7.58749 3.97656 8.84878 3.97656C10.4117 3.97656 11.577 5.00479 11.577 7.18463ZM0.828616 11.2838H2.84394C2.93991 11.2838 3.02216 11.2016 3.02216 11.1056V4.3193C3.02216 4.22334 2.93991 4.14108 2.84394 4.14108H0.828616C0.732649 4.14108 0.650391 4.22334 0.650391 4.3193V11.1056C0.6641 11.2016 0.732649 11.2838 0.828616 11.2838Z" fill="#333033"/>
<path d="M1.775 3.24995C2.47916 3.24995 3.05 2.67911 3.05 1.97495C3.05 1.27079 2.47916 0.699951 1.775 0.699951C1.07084 0.699951 0.5 1.27079 0.5 1.97495C0.5 2.67911 1.07084 3.24995 1.775 3.24995Z" fill="#333033"/>
</svg>
