<svg width="159" height="30" viewBox="0 0 159 30" fill="none" xmlns="http://www.w3.org/2000/svg">
<path d="M14.9992 29.5499C23.035 29.5499 29.5492 23.0357 29.5492 15C29.5492 6.96421 23.035 0.449951 14.9992 0.449951C6.96348 0.449951 0.449219 6.96421 0.449219 15C0.449219 23.0357 6.96348 29.5499 14.9992 29.5499Z" fill="#232427"/>
<path d="M21.3663 20.7976L16.4463 8.90255C16.1688 8.28755 15.7563 7.98755 15.2126 7.98755H14.7776C14.2338 7.98755 13.8213 8.28755 13.5438 8.90255L11.4026 14.0851H9.78258C9.29883 14.0888 8.90508 14.4788 8.90133 14.9663V14.9776C8.90508 15.4613 9.29883 15.8551 9.78258 15.8588H10.6526L8.60883 20.7976C8.57133 20.9063 8.54883 21.0188 8.54883 21.1351C8.54883 21.4126 8.63508 21.6301 8.78883 21.7988C8.94258 21.9676 9.16383 22.0501 9.44133 22.0501C9.62508 22.0463 9.80133 21.9901 9.94758 21.8813C10.1051 21.7726 10.2138 21.6151 10.3001 21.4351L12.5501 15.8551H14.1101C14.5938 15.8513 14.9876 15.4613 14.9913 14.9738V14.9513C14.9876 14.4676 14.5938 14.0738 14.1101 14.0701H13.2776L14.9951 9.7913L19.6751 21.4313C19.7613 21.6113 19.8701 21.7688 20.0276 21.8776C20.1738 21.9863 20.3538 22.0426 20.5338 22.0463C20.8113 22.0463 21.0288 21.9638 21.1863 21.7951C21.3438 21.6263 21.4263 21.4088 21.4263 21.1313C21.4301 21.0188 21.4113 20.9026 21.3663 20.7976Z" fill="#FAFAFA"/>
<path d="M44.3118 22H42.343L45.9276 11.8182H48.2045L51.794 22H49.8253L47.1058 13.9062H47.0263L44.3118 22ZM44.3764 18.0078H49.7457V19.4893H44.3764V18.0078ZM55.253 22.1541C54.7691 22.1541 54.3333 22.0679 53.9455 21.8956C53.561 21.7199 53.2561 21.4614 53.0307 21.12C52.8087 20.7786 52.6976 20.3577 52.6976 19.8572C52.6976 19.4264 52.7772 19.0701 52.9363 18.7884C53.0953 18.5066 53.3124 18.2812 53.5875 18.1122C53.8626 17.9432 54.1725 17.8156 54.5172 17.7294C54.8652 17.6399 55.2248 17.5753 55.5961 17.5355C56.0435 17.4891 56.4064 17.4477 56.6848 17.4112C56.9632 17.3714 57.1654 17.3118 57.2914 17.2322C57.4206 17.1494 57.4853 17.0218 57.4853 16.8494V16.8196C57.4853 16.4451 57.3742 16.1551 57.1522 15.9496C56.9301 15.7441 56.6103 15.6413 56.1926 15.6413C55.7518 15.6413 55.4022 15.7375 55.1436 15.9297C54.8884 16.1219 54.7161 16.349 54.6266 16.6108L52.9462 16.3722C53.0788 15.9081 53.2975 15.5204 53.6025 15.2088C53.9074 14.8939 54.2802 14.6586 54.7211 14.5028C55.1619 14.3438 55.6491 14.2642 56.1827 14.2642C56.5506 14.2642 56.9168 14.3073 57.2814 14.3935C57.646 14.4796 57.9791 14.6222 58.2807 14.821C58.5823 15.0166 58.8243 15.2834 59.0066 15.6214C59.1922 15.9595 59.285 16.3821 59.285 16.8892V22H57.5549V20.951H57.4952C57.3858 21.1631 57.2317 21.362 57.0328 21.5476C56.8373 21.7299 56.5904 21.8774 56.2921 21.9901C55.9971 22.0994 55.6507 22.1541 55.253 22.1541ZM55.7203 20.8317C56.0816 20.8317 56.3948 20.7604 56.66 20.6179C56.9251 20.4721 57.129 20.2798 57.2715 20.0412C57.4173 19.8026 57.4902 19.5424 57.4902 19.2607V18.3608C57.4339 18.4072 57.3378 18.4503 57.2019 18.4901C57.0693 18.5298 56.9202 18.5646 56.7544 18.5945C56.5887 18.6243 56.4247 18.6508 56.2623 18.674C56.0998 18.6972 55.959 18.7171 55.8397 18.7337C55.5712 18.7701 55.3309 18.8298 55.1188 18.9126C54.9067 18.9955 54.7393 19.1115 54.6167 19.2607C54.494 19.4065 54.4327 19.5954 54.4327 19.8274C54.4327 20.1589 54.5537 20.4091 54.7956 20.5781C55.0376 20.7472 55.3458 20.8317 55.7203 20.8317ZM67.6422 14.3636L64.9228 22H62.9341L60.2147 14.3636H62.1337L63.8887 20.0362H63.9682L65.7282 14.3636H67.6422ZM72.0085 22.1491C71.2429 22.1491 70.5817 21.9901 70.0249 21.6719C69.4714 21.3504 69.0455 20.8963 68.7472 20.3097C68.4489 19.7197 68.2997 19.0253 68.2997 18.2266C68.2997 17.4411 68.4489 16.7517 68.7472 16.1584C69.0488 15.5618 69.4697 15.0978 70.0099 14.7663C70.5502 14.4316 71.1849 14.2642 71.9141 14.2642C72.3847 14.2642 72.8288 14.3404 73.2464 14.4929C73.6674 14.642 74.0386 14.8741 74.3601 15.1889C74.6849 15.5038 74.9401 15.9048 75.1257 16.392C75.3113 16.8759 75.4041 17.4527 75.4041 18.1222V18.674H69.1449V17.4609H73.679C73.6757 17.1162 73.6011 16.8097 73.4553 16.5412C73.3094 16.2694 73.1056 16.0556 72.8438 15.8999C72.5852 15.7441 72.2836 15.6662 71.9389 15.6662C71.571 15.6662 71.2479 15.7557 70.9695 15.9347C70.6911 16.1103 70.474 16.3423 70.3182 16.6307C70.1657 16.9157 70.0878 17.2289 70.0845 17.5703V18.6293C70.0845 19.0734 70.1657 19.4545 70.3281 19.7727C70.4905 20.0876 70.7176 20.3295 71.0092 20.4986C71.3009 20.6643 71.6423 20.7472 72.0334 20.7472C72.2952 20.7472 72.5322 20.7107 72.7443 20.6378C72.9564 20.5616 73.1404 20.4505 73.2962 20.3047C73.4519 20.1589 73.5696 19.9782 73.6491 19.7628L75.3295 19.9517C75.2235 20.3958 75.0213 20.7836 74.723 21.1151C74.428 21.4432 74.0502 21.6984 73.5895 21.8807C73.1288 22.0597 72.6018 22.1491 72.0085 22.1491ZM87.2999 15.0696C87.217 14.8011 87.1027 14.5608 86.9569 14.3487C86.8143 14.1333 86.642 13.9493 86.4398 13.7969C86.2409 13.6444 86.0123 13.5301 85.7537 13.4538C85.4952 13.3743 85.2135 13.3345 84.9086 13.3345C84.3617 13.3345 83.8745 13.4721 83.4469 13.7472C83.0194 14.0223 82.6829 14.4266 82.4377 14.9602C82.1957 15.4905 82.0748 16.1368 82.0748 16.8991C82.0748 17.6681 82.1957 18.3194 82.4377 18.853C82.6796 19.3866 83.016 19.7926 83.4469 20.071C83.8778 20.3461 84.3783 20.4837 84.9483 20.4837C85.4654 20.4837 85.9128 20.3842 86.2907 20.1854C86.6718 19.9865 86.9651 19.7048 87.1706 19.3402C87.3761 18.9723 87.4789 18.5414 87.4789 18.0476L87.8965 18.1122H85.1323V16.6705H89.2637V17.8935C89.2637 18.7652 89.0781 19.5192 88.7069 20.1555C88.3356 20.7919 87.8252 21.2824 87.1756 21.6271C86.526 21.9685 85.7802 22.1392 84.9384 22.1392C84.0004 22.1392 83.1768 21.9287 82.4675 21.5078C81.7615 21.0836 81.2097 20.482 80.812 19.7031C80.4176 18.9209 80.2203 17.9929 80.2203 16.919C80.2203 16.0971 80.3364 15.3629 80.5684 14.7166C80.8037 14.0703 81.1318 13.5218 81.5527 13.071C81.9737 12.617 82.4675 12.2723 83.0343 12.0369C83.601 11.7983 84.2175 11.679 84.8837 11.679C85.4471 11.679 85.9725 11.7618 86.4597 11.9276C86.9469 12.09 87.3794 12.322 87.7573 12.6236C88.1384 12.9252 88.4516 13.2831 88.6969 13.6974C88.9422 14.1117 89.1029 14.5691 89.1792 15.0696H87.2999ZM90.9677 22V14.3636H92.7127V15.6364H92.7923C92.9315 15.1955 93.1701 14.8558 93.5082 14.6172C93.8496 14.3752 94.239 14.2543 94.6765 14.2543C94.7759 14.2543 94.887 14.2592 95.0096 14.2692C95.1355 14.2758 95.2399 14.2874 95.3228 14.304V15.9595C95.2466 15.933 95.1256 15.9098 94.9599 15.8899C94.7975 15.8667 94.64 15.8551 94.4876 15.8551C94.1594 15.8551 93.8645 15.9264 93.6026 16.0689C93.3441 16.2081 93.1403 16.402 92.9911 16.6506C92.842 16.8991 92.7674 17.1858 92.7674 17.5107V22H90.9677ZM98.5792 22.1541C98.0953 22.1541 97.6594 22.0679 97.2717 21.8956C96.8872 21.7199 96.5823 21.4614 96.3569 21.12C96.1348 20.7786 96.0238 20.3577 96.0238 19.8572C96.0238 19.4264 96.1033 19.0701 96.2624 18.7884C96.4215 18.5066 96.6386 18.2812 96.9137 18.1122C97.1888 17.9432 97.4987 17.8156 97.8434 17.7294C98.1914 17.6399 98.551 17.5753 98.9222 17.5355C99.3697 17.4891 99.7326 17.4477 100.011 17.4112C100.289 17.3714 100.492 17.3118 100.618 17.2322C100.747 17.1494 100.811 17.0218 100.811 16.8494V16.8196C100.811 16.4451 100.7 16.1551 100.478 15.9496C100.256 15.7441 99.9364 15.6413 99.5188 15.6413C99.078 15.6413 98.7283 15.7375 98.4698 15.9297C98.2146 16.1219 98.0423 16.349 97.9528 16.6108L96.2724 16.3722C96.4049 15.9081 96.6237 15.5204 96.9286 15.2088C97.2335 14.8939 97.6064 14.6586 98.0472 14.5028C98.488 14.3438 98.9753 14.2642 99.5089 14.2642C99.8768 14.2642 100.243 14.3073 100.608 14.3935C100.972 14.4796 101.305 14.6222 101.607 14.821C101.908 15.0166 102.15 15.2834 102.333 15.6214C102.518 15.9595 102.611 16.3821 102.611 16.8892V22H100.881V20.951H100.821C100.712 21.1631 100.558 21.362 100.359 21.5476C100.163 21.7299 99.9165 21.8774 99.6183 21.9901C99.3233 22.0994 98.9769 22.1541 98.5792 22.1541ZM99.0465 20.8317C99.4078 20.8317 99.721 20.7604 99.9862 20.6179C100.251 20.4721 100.455 20.2798 100.598 20.0412C100.743 19.8026 100.816 19.5424 100.816 19.2607V18.3608C100.76 18.4072 100.664 18.4503 100.528 18.4901C100.395 18.5298 100.246 18.5646 100.081 18.5945C99.9149 18.6243 99.7508 18.6508 99.5884 18.674C99.426 18.6972 99.2852 18.7171 99.1658 18.7337C98.8974 18.7701 98.6571 18.8298 98.445 18.9126C98.2328 18.9955 98.0655 19.1115 97.9428 19.2607C97.8202 19.4065 97.7589 19.5954 97.7589 19.8274C97.7589 20.1589 97.8799 20.4091 98.1218 20.5781C98.3638 20.7472 98.672 20.8317 99.0465 20.8317ZM106.221 17.5256V22H104.421V14.3636H106.141V15.6612H106.23C106.406 15.2337 106.686 14.8939 107.071 14.642C107.458 14.3902 107.937 14.2642 108.507 14.2642C109.034 14.2642 109.493 14.3769 109.885 14.6023C110.279 14.8277 110.584 15.1541 110.799 15.5817C111.018 16.0092 111.126 16.5279 111.123 17.1378V22H109.323V17.4162C109.323 16.9058 109.19 16.5064 108.925 16.218C108.663 15.9297 108.3 15.7855 107.836 15.7855C107.521 15.7855 107.241 15.8551 106.996 15.9943C106.754 16.1302 106.564 16.3274 106.424 16.5859C106.288 16.8445 106.221 17.1577 106.221 17.5256ZM116.765 14.3636V15.7557H112.375V14.3636H116.765ZM113.459 12.5341H115.259V19.7031C115.259 19.9451 115.295 20.1307 115.368 20.2599C115.444 20.3859 115.544 20.4721 115.667 20.5185C115.789 20.5649 115.925 20.5881 116.074 20.5881C116.187 20.5881 116.29 20.5798 116.382 20.5632C116.479 20.5466 116.551 20.5317 116.601 20.5185L116.904 21.9254C116.808 21.9586 116.671 21.995 116.492 22.0348C116.316 22.0746 116.101 22.0978 115.846 22.1044C115.395 22.1177 114.989 22.0497 114.627 21.9006C114.266 21.7481 113.98 21.5128 113.767 21.1946C113.559 20.8764 113.456 20.4787 113.459 20.0014V12.5341ZM124.197 16.3821L122.556 16.5611C122.51 16.3954 122.428 16.2396 122.312 16.0938C122.2 15.9479 122.047 15.8303 121.855 15.7408C121.663 15.6513 121.427 15.6065 121.149 15.6065C120.774 15.6065 120.46 15.6877 120.204 15.8501C119.952 16.0125 119.828 16.223 119.831 16.4815C119.828 16.7036 119.909 16.8842 120.075 17.0234C120.244 17.1626 120.523 17.277 120.91 17.3665L122.213 17.6449C122.935 17.8007 123.472 18.0476 123.824 18.3857C124.178 18.7237 124.357 19.1662 124.361 19.7131C124.357 20.1937 124.216 20.6179 123.938 20.9858C123.663 21.3504 123.28 21.6354 122.79 21.8409C122.299 22.0464 121.736 22.1491 121.099 22.1491C120.165 22.1491 119.412 21.9536 118.842 21.5625C118.272 21.1681 117.932 20.6196 117.823 19.9169L119.578 19.7479C119.657 20.0926 119.827 20.3527 120.085 20.5284C120.344 20.7041 120.68 20.7919 121.094 20.7919C121.522 20.7919 121.865 20.7041 122.123 20.5284C122.385 20.3527 122.516 20.1357 122.516 19.8771C122.516 19.6584 122.432 19.4777 122.263 19.3352C122.097 19.1927 121.838 19.0833 121.487 19.0071L120.184 18.7337C119.452 18.5812 118.91 18.3243 118.559 17.9631C118.207 17.5985 118.033 17.1378 118.037 16.581C118.033 16.1103 118.161 15.7027 118.42 15.358C118.681 15.0099 119.044 14.7415 119.508 14.5526C119.976 14.3603 120.514 14.2642 121.124 14.2642C122.019 14.2642 122.723 14.4548 123.237 14.8359C123.754 15.2171 124.074 15.7325 124.197 16.3821ZM132.847 22H129.397V11.8182H132.917C133.928 11.8182 134.796 12.022 135.522 12.4297C136.251 12.834 136.811 13.4157 137.202 14.1747C137.593 14.9337 137.789 15.8419 137.789 16.8991C137.789 17.9598 137.592 18.8712 137.197 19.6335C136.806 20.3958 136.241 20.9808 135.502 21.3885C134.766 21.7962 133.881 22 132.847 22ZM131.241 20.4041H132.758C133.467 20.4041 134.059 20.2749 134.532 20.0163C135.006 19.7545 135.363 19.3651 135.601 18.848C135.84 18.3277 135.959 17.678 135.959 16.8991C135.959 16.1203 135.84 15.474 135.601 14.9602C135.363 14.4432 135.01 14.0571 134.542 13.8018C134.078 13.5433 133.502 13.4141 132.812 13.4141H131.241V20.4041ZM140.302 22H138.333L141.918 11.8182H144.195L147.784 22H145.816L143.096 13.9062H143.017L140.302 22ZM140.367 18.0078H145.736V19.4893H140.367V18.0078ZM157.745 16.9091C157.745 18.0062 157.539 18.9458 157.128 19.728C156.721 20.5069 156.164 21.1035 155.458 21.5178C154.755 21.9321 153.958 22.1392 153.067 22.1392C152.175 22.1392 151.376 21.9321 150.67 21.5178C149.968 21.1001 149.411 20.5019 149 19.723C148.592 18.9408 148.388 18.0028 148.388 16.9091C148.388 15.812 148.592 14.8741 149 14.0952C149.411 13.313 149.968 12.7147 150.67 12.3004C151.376 11.8861 152.175 11.679 153.067 11.679C153.958 11.679 154.755 11.8861 155.458 12.3004C156.164 12.7147 156.721 13.313 157.128 14.0952C157.539 14.8741 157.745 15.812 157.745 16.9091ZM155.89 16.9091C155.89 16.1368 155.769 15.4856 155.528 14.9553C155.289 14.4216 154.957 14.0189 154.533 13.7472C154.109 13.4721 153.62 13.3345 153.067 13.3345C152.513 13.3345 152.024 13.4721 151.6 13.7472C151.176 14.0189 150.843 14.4216 150.601 14.9553C150.362 15.4856 150.243 16.1368 150.243 16.9091C150.243 17.6813 150.362 18.3343 150.601 18.8679C150.843 19.3982 151.176 19.8009 151.6 20.076C152.024 20.3478 152.513 20.4837 153.067 20.4837C153.62 20.4837 154.109 20.3478 154.533 20.076C154.957 19.8009 155.289 19.3982 155.528 18.8679C155.769 18.3343 155.89 17.6813 155.89 16.9091Z" fill="#232427"/>
</svg>
