<svg width="158" height="30" viewBox="0 0 158 30" fill="none" xmlns="http://www.w3.org/2000/svg">
<path d="M25.7938 0H3.92157C1.75575 0 0 1.75575 0 3.92157V25.7939C0 27.9597 1.75575 29.7155 3.92157 29.7155H25.7938C27.9597 29.7155 29.7154 27.9597 29.7154 25.7939V3.92157C29.7154 1.75575 27.9597 0 25.7938 0Z" fill="#232427"/>
<path fill-rule="evenodd" clip-rule="evenodd" d="M8.34569 20.0701C7.88399 19.786 7.60163 19.2799 7.60163 18.7363V15.7016C7.60163 15.5855 7.63254 15.4735 7.69025 15.3739C7.86956 15.0628 8.26736 14.957 8.57652 15.1396L15.3823 19.1326C15.7801 19.3669 16.0254 19.7942 16.0254 20.2588V23.4035C16.0254 23.5466 15.9861 23.6897 15.912 23.8121C15.6873 24.1813 15.2091 24.2975 14.8422 24.0715L8.34569 20.0701ZM18.4903 14.3077C18.8881 14.542 19.1334 14.9693 19.1334 15.434V21.8146C19.1334 22.0033 19.0324 22.1776 18.8695 22.2688L17.3794 23.1131C17.3608 23.1235 17.3403 23.1317 17.3196 23.138V19.595C17.3196 19.1366 17.0806 18.7114 16.689 18.475L10.7118 14.8761V10.8768C10.7118 10.7606 10.7427 10.6486 10.8005 10.549C10.9797 10.2379 11.3776 10.1321 11.6867 10.3147L18.4903 14.3077ZM21.4686 9.59485C21.8685 9.82715 22.1139 10.2587 22.1139 10.7233V20.0431C22.1139 20.234 22.0086 20.4103 21.8418 20.5016L20.4298 21.269V14.7806C20.4298 14.3222 20.1909 13.899 19.8012 13.6626L13.6922 9.97444V6.18056C13.6922 6.06442 13.7231 5.9524 13.7787 5.85284C13.9581 5.5417 14.3558 5.4359 14.665 5.61637L21.4686 9.59485Z" fill="#FAFAFA"/>
<path d="M51.7195 15.2536H49.8601C49.8071 14.9486 49.7093 14.6785 49.5668 14.4432C49.4242 14.2045 49.2469 14.0024 49.0348 13.8366C48.8227 13.6709 48.5807 13.5466 48.3089 13.4638C48.0405 13.3776 47.7505 13.3345 47.4389 13.3345C46.8854 13.3345 46.3949 13.4737 45.9673 13.7521C45.5398 14.0272 45.205 14.4316 44.9631 14.9652C44.7211 15.4955 44.6001 16.1435 44.6001 16.9091C44.6001 17.688 44.7211 18.3442 44.9631 18.8778C45.2083 19.4081 45.5431 19.8092 45.9673 20.081C46.3949 20.3494 46.8838 20.4837 47.4339 20.4837C47.7389 20.4837 48.0239 20.4439 48.2891 20.3643C48.5575 20.2815 48.7978 20.1605 49.0099 20.0014C49.2254 19.8423 49.406 19.6468 49.5518 19.4148C49.701 19.1828 49.8037 18.9176 49.8601 18.6193L51.7195 18.6293C51.6499 19.1132 51.4991 19.5672 51.267 19.9915C51.0384 20.4157 50.7384 20.7902 50.3672 21.1151C49.996 21.4366 49.5618 21.6884 49.0646 21.8707C48.5675 22.0497 48.0156 22.1392 47.4091 22.1392C46.5142 22.1392 45.7154 21.9321 45.0128 21.5178C44.3101 21.1035 43.7566 20.5052 43.3523 19.723C42.9479 18.9408 42.7457 18.0028 42.7457 16.9091C42.7457 15.812 42.9496 14.8741 43.3572 14.0952C43.7649 13.313 44.3201 12.7147 45.0227 12.3004C45.7254 11.8861 46.5208 11.679 47.4091 11.679C47.9759 11.679 48.5028 11.7585 48.9901 11.9176C49.4773 12.0767 49.9115 12.3104 50.2926 12.6186C50.6738 12.9235 50.987 13.2981 51.2322 13.7422C51.4808 14.183 51.6432 14.6868 51.7195 15.2536ZM56.66 22.1491C55.9142 22.1491 55.2679 21.9851 54.7211 21.657C54.1742 21.3288 53.7499 20.8698 53.4483 20.2798C53.15 19.6899 53.0009 19.0005 53.0009 18.2116C53.0009 17.4228 53.15 16.7318 53.4483 16.1385C53.7499 15.5452 54.1742 15.0845 54.7211 14.7564C55.2679 14.4283 55.9142 14.2642 56.66 14.2642C57.4057 14.2642 58.052 14.4283 58.5989 14.7564C59.1458 15.0845 59.5684 15.5452 59.8667 16.1385C60.1683 16.7318 60.3191 17.4228 60.3191 18.2116C60.3191 19.0005 60.1683 19.6899 59.8667 20.2798C59.5684 20.8698 59.1458 21.3288 58.5989 21.657C58.052 21.9851 57.4057 22.1491 56.66 22.1491ZM56.6699 20.7074C57.0743 20.7074 57.4123 20.5964 57.6841 20.3743C57.9559 20.1489 58.1581 19.8473 58.2907 19.4695C58.4266 19.0916 58.4945 18.6707 58.4945 18.2067C58.4945 17.7393 58.4266 17.3168 58.2907 16.9389C58.1581 16.5578 57.9559 16.2545 57.6841 16.0291C57.4123 15.8037 57.0743 15.6911 56.6699 15.6911C56.2556 15.6911 55.9109 15.8037 55.6358 16.0291C55.3641 16.2545 55.1602 16.5578 55.0243 16.9389C54.8917 17.3168 54.8255 17.7393 54.8255 18.2067C54.8255 18.6707 54.8917 19.0916 55.0243 19.4695C55.1602 19.8473 55.3641 20.1489 55.6358 20.3743C55.9109 20.5964 56.2556 20.7074 56.6699 20.7074ZM61.8466 22V14.3636H63.5668V15.6612H63.6562C63.8153 15.2237 64.0788 14.8823 64.4467 14.6371C64.8146 14.3885 65.2538 14.2642 65.7642 14.2642C66.2812 14.2642 66.7171 14.3902 67.0717 14.642C67.4297 14.8906 67.6816 15.2304 67.8274 15.6612H67.907C68.076 15.237 68.361 14.8989 68.7621 14.647C69.1664 14.3918 69.6454 14.2642 70.1989 14.2642C70.9015 14.2642 71.4749 14.4863 71.919 14.9304C72.3632 15.3745 72.5852 16.0225 72.5852 16.8743V22H70.7805V17.1527C70.7805 16.6787 70.6546 16.3324 70.4027 16.1136C70.1508 15.8916 69.8426 15.7805 69.478 15.7805C69.0438 15.7805 68.7041 15.9164 68.4588 16.1882C68.2169 16.4567 68.0959 16.8063 68.0959 17.2372V22H66.331V17.0781C66.331 16.6837 66.2116 16.3688 65.973 16.1335C65.7377 15.8982 65.4295 15.7805 65.0483 15.7805C64.7898 15.7805 64.5545 15.8468 64.3423 15.9794C64.1302 16.1087 63.9612 16.2926 63.8352 16.5312C63.7093 16.7666 63.6463 17.0417 63.6463 17.3565V22H61.8466ZM74.411 24.8636V14.3636H76.1809V15.6264H76.2853C76.3781 15.4408 76.5091 15.2436 76.6781 15.0348C76.8471 14.8227 77.0758 14.642 77.3642 14.4929C77.6525 14.3404 78.0204 14.2642 78.4679 14.2642C79.0578 14.2642 79.5898 14.415 80.0637 14.7166C80.541 15.0149 80.9189 15.4574 81.1973 16.044C81.479 16.6274 81.6199 17.3433 81.6199 18.1918C81.6199 19.0303 81.4823 19.7429 81.2072 20.3295C80.9321 20.9162 80.5576 21.3636 80.0836 21.6719C79.6097 21.9801 79.0727 22.1342 78.4728 22.1342C78.0353 22.1342 77.6724 22.0613 77.3841 21.9155C77.0957 21.7696 76.8637 21.594 76.688 21.3885C76.5157 21.1797 76.3815 20.9825 76.2853 20.7969H76.2108V24.8636H74.411ZM76.176 18.1818C76.176 18.6757 76.2456 19.1082 76.3848 19.4794C76.5273 19.8506 76.7311 20.1406 76.9963 20.3494C77.2647 20.5549 77.5895 20.6577 77.9707 20.6577C78.3684 20.6577 78.7015 20.5516 78.97 20.3395C79.2385 20.1241 79.4406 19.8307 79.5765 19.4595C79.7157 19.085 79.7853 18.6591 79.7853 18.1818C79.7853 17.7079 79.7174 17.2869 79.5815 16.919C79.4456 16.5511 79.2434 16.2628 78.975 16.054C78.7065 15.8452 78.3717 15.7408 77.9707 15.7408C77.5862 15.7408 77.2598 15.8419 76.9913 16.044C76.7228 16.2462 76.519 16.5296 76.3798 16.8942C76.2439 17.2588 76.176 17.688 76.176 18.1818ZM88.0282 18.7884V14.3636H89.8279V22H88.0829V20.6428H88.0034C87.831 21.0703 87.5476 21.42 87.1532 21.6918C86.7621 21.9635 86.2799 22.0994 85.7065 22.0994C85.206 22.0994 84.7636 21.9884 84.3791 21.7663C83.9979 21.541 83.6996 21.2145 83.4842 20.7869C83.2688 20.3561 83.161 19.8357 83.161 19.2259V14.3636H84.9608V18.9474C84.9608 19.4313 85.0933 19.8158 85.3585 20.1009C85.6236 20.3859 85.9717 20.5284 86.4025 20.5284C86.6677 20.5284 86.9245 20.4638 87.1731 20.3345C87.4217 20.2053 87.6255 20.013 87.7846 19.7578C87.947 19.4993 88.0282 19.1761 88.0282 18.7884ZM93.4783 17.5256V22H91.6786V14.3636H93.3988V15.6612H93.4883C93.6639 15.2337 93.944 14.8939 94.3285 14.642C94.7163 14.3902 95.1952 14.2642 95.7653 14.2642C96.2923 14.2642 96.7513 14.3769 97.1424 14.6023C97.5368 14.8277 97.8417 15.1541 98.0572 15.5817C98.2759 16.0092 98.3836 16.5279 98.3803 17.1378V22H96.5806V17.4162C96.5806 16.9058 96.448 16.5064 96.1829 16.218C95.921 15.9297 95.5581 15.7855 95.0941 15.7855C94.7792 15.7855 94.4992 15.8551 94.2539 15.9943C94.012 16.1302 93.8214 16.3274 93.6822 16.5859C93.5463 16.8445 93.4783 17.1577 93.4783 17.5256ZM103.044 22.1342C102.444 22.1342 101.907 21.9801 101.433 21.6719C100.959 21.3636 100.584 20.9162 100.309 20.3295C100.034 19.7429 99.8967 19.0303 99.8967 18.1918C99.8967 17.3433 100.036 16.6274 100.314 16.044C100.596 15.4574 100.975 15.0149 101.453 14.7166C101.93 14.415 102.462 14.2642 103.049 14.2642C103.496 14.2642 103.864 14.3404 104.152 14.4929C104.441 14.642 104.669 14.8227 104.838 15.0348C105.007 15.2436 105.138 15.4408 105.231 15.6264H105.306V11.8182H107.11V22H105.341V20.7969H105.231C105.138 20.9825 105.004 21.1797 104.828 21.3885C104.653 21.594 104.421 21.7696 104.132 21.9155C103.844 22.0613 103.481 22.1342 103.044 22.1342ZM103.546 20.6577C103.927 20.6577 104.252 20.5549 104.52 20.3494C104.789 20.1406 104.993 19.8506 105.132 19.4794C105.271 19.1082 105.341 18.6757 105.341 18.1818C105.341 17.688 105.271 17.2588 105.132 16.8942C104.996 16.5296 104.794 16.2462 104.525 16.044C104.26 15.8419 103.934 15.7408 103.546 15.7408C103.145 15.7408 102.81 15.8452 102.542 16.054C102.273 16.2628 102.071 16.5511 101.935 16.919C101.799 17.2869 101.731 17.7079 101.731 18.1818C101.731 18.6591 101.799 19.085 101.935 19.4595C102.074 19.8307 102.278 20.1241 102.547 20.3395C102.818 20.5516 103.151 20.6577 103.546 20.6577ZM119.401 15.0696C119.319 14.8011 119.204 14.5608 119.058 14.3487C118.916 14.1333 118.744 13.9493 118.541 13.7969C118.343 13.6444 118.114 13.5301 117.855 13.4538C117.597 13.3743 117.315 13.3345 117.01 13.3345C116.463 13.3345 115.976 13.4721 115.548 13.7472C115.121 14.0223 114.785 14.4266 114.539 14.9602C114.297 15.4905 114.176 16.1368 114.176 16.8991C114.176 17.6681 114.297 18.3194 114.539 18.853C114.781 19.3866 115.118 19.7926 115.548 20.071C115.979 20.3461 116.48 20.4837 117.05 20.4837C117.567 20.4837 118.014 20.3842 118.392 20.1854C118.773 19.9865 119.067 19.7048 119.272 19.3402C119.478 18.9723 119.58 18.5414 119.58 18.0476L119.998 18.1122H117.234V16.6705H121.365V17.8935C121.365 18.7652 121.18 19.5192 120.808 20.1555C120.437 20.7919 119.927 21.2824 119.277 21.6271C118.628 21.9685 117.882 22.1392 117.04 22.1392C116.102 22.1392 115.278 21.9287 114.569 21.5078C113.863 21.0836 113.311 20.482 112.914 19.7031C112.519 18.9209 112.322 17.9929 112.322 16.919C112.322 16.0971 112.438 15.3629 112.67 14.7166C112.905 14.0703 113.233 13.5218 113.654 13.071C114.075 12.617 114.569 12.2723 115.136 12.0369C115.703 11.7983 116.319 11.679 116.985 11.679C117.549 11.679 118.074 11.7618 118.561 11.9276C119.048 12.09 119.481 12.322 119.859 12.6236C120.24 12.9252 120.553 13.2831 120.798 13.6974C121.044 14.1117 121.204 14.5691 121.281 15.0696H119.401ZM123.069 22V14.3636H124.814V15.6364H124.894C125.033 15.1955 125.272 14.8558 125.61 14.6172C125.951 14.3752 126.341 14.2543 126.778 14.2543C126.877 14.2543 126.989 14.2592 127.111 14.2692C127.237 14.2758 127.342 14.2874 127.424 14.304V15.9595C127.348 15.933 127.227 15.9098 127.061 15.8899C126.899 15.8667 126.742 15.8551 126.589 15.8551C126.261 15.8551 125.966 15.9264 125.704 16.0689C125.446 16.2081 125.242 16.402 125.093 16.6506C124.944 16.8991 124.869 17.1858 124.869 17.5107V22H123.069ZM130.681 22.1541C130.197 22.1541 129.761 22.0679 129.373 21.8956C128.989 21.7199 128.684 21.4614 128.458 21.12C128.236 20.7786 128.125 20.3577 128.125 19.8572C128.125 19.4264 128.205 19.0701 128.364 18.7884C128.523 18.5066 128.74 18.2812 129.015 18.1122C129.29 17.9432 129.6 17.8156 129.945 17.7294C130.293 17.6399 130.653 17.5753 131.024 17.5355C131.471 17.4891 131.834 17.4477 132.113 17.4112C132.391 17.3714 132.593 17.3118 132.719 17.2322C132.848 17.1494 132.913 17.0218 132.913 16.8494V16.8196C132.913 16.4451 132.802 16.1551 132.58 15.9496C132.358 15.7441 132.038 15.6413 131.62 15.6413C131.18 15.6413 130.83 15.7375 130.571 15.9297C130.316 16.1219 130.144 16.349 130.054 16.6108L128.374 16.3722C128.507 15.9081 128.725 15.5204 129.03 15.2088C129.335 14.8939 129.708 14.6586 130.149 14.5028C130.59 14.3438 131.077 14.2642 131.61 14.2642C131.978 14.2642 132.345 14.3073 132.709 14.3935C133.074 14.4796 133.407 14.6222 133.708 14.821C134.01 15.0166 134.252 15.2834 134.434 15.6214C134.62 15.9595 134.713 16.3821 134.713 16.8892V22H132.983V20.951H132.923C132.814 21.1631 132.659 21.362 132.461 21.5476C132.265 21.7299 132.018 21.8774 131.72 21.9901C131.425 22.0994 131.078 22.1541 130.681 22.1541ZM131.148 20.8317C131.509 20.8317 131.823 20.7604 132.088 20.6179C132.353 20.4721 132.557 20.2798 132.699 20.0412C132.845 19.8026 132.918 19.5424 132.918 19.2607V18.3608C132.862 18.4072 132.766 18.4503 132.63 18.4901C132.497 18.5298 132.348 18.5646 132.182 18.5945C132.016 18.6243 131.852 18.6508 131.69 18.674C131.528 18.6972 131.387 18.7171 131.267 18.7337C130.999 18.7701 130.759 18.8298 130.547 18.9126C130.334 18.9955 130.167 19.1115 130.044 19.2607C129.922 19.4065 129.86 19.5954 129.86 19.8274C129.86 20.1589 129.981 20.4091 130.223 20.5781C130.465 20.7472 130.774 20.8317 131.148 20.8317ZM138.322 17.5256V22H136.522V14.3636H138.243V15.6612H138.332C138.508 15.2337 138.788 14.8939 139.172 14.642C139.56 14.3902 140.039 14.2642 140.609 14.2642C141.136 14.2642 141.595 14.3769 141.986 14.6023C142.381 14.8277 142.685 15.1541 142.901 15.5817C143.12 16.0092 143.227 16.5279 143.224 17.1378V22H141.424V17.4162C141.424 16.9058 141.292 16.5064 141.027 16.218C140.765 15.9297 140.402 15.7855 139.938 15.7855C139.623 15.7855 139.343 15.8551 139.098 15.9943C138.856 16.1302 138.665 16.3274 138.526 16.5859C138.39 16.8445 138.322 17.1577 138.322 17.5256ZM148.867 14.3636V15.7557H144.477V14.3636H148.867ZM145.561 12.5341H147.36V19.7031C147.36 19.9451 147.397 20.1307 147.47 20.2599C147.546 20.3859 147.645 20.4721 147.768 20.5185C147.891 20.5649 148.027 20.5881 148.176 20.5881C148.288 20.5881 148.391 20.5798 148.484 20.5632C148.58 20.5466 148.653 20.5317 148.703 20.5185L149.006 21.9254C148.91 21.9586 148.772 21.995 148.593 22.0348C148.418 22.0746 148.202 22.0978 147.947 22.1044C147.496 22.1177 147.09 22.0497 146.729 21.9006C146.368 21.7481 146.081 21.5128 145.869 21.1946C145.66 20.8764 145.557 20.4787 145.561 20.0014V12.5341ZM156.298 16.3821L154.657 16.5611C154.611 16.3954 154.53 16.2396 154.414 16.0938C154.301 15.9479 154.149 15.8303 153.956 15.7408C153.764 15.6513 153.529 15.6065 153.251 15.6065C152.876 15.6065 152.561 15.6877 152.306 15.8501C152.054 16.0125 151.93 16.223 151.933 16.4815C151.93 16.7036 152.011 16.8842 152.177 17.0234C152.346 17.1626 152.624 17.277 153.012 17.3665L154.314 17.6449C155.037 17.8007 155.574 18.0476 155.925 18.3857C156.28 18.7237 156.459 19.1662 156.462 19.7131C156.459 20.1937 156.318 20.6179 156.04 20.9858C155.765 21.3504 155.382 21.6354 154.891 21.8409C154.401 22.0464 153.837 22.1491 153.201 22.1491C152.266 22.1491 151.514 21.9536 150.944 21.5625C150.374 21.1681 150.034 20.6196 149.925 19.9169L151.68 19.7479C151.759 20.0926 151.928 20.3527 152.187 20.5284C152.445 20.7041 152.782 20.7919 153.196 20.7919C153.623 20.7919 153.966 20.7041 154.225 20.5284C154.487 20.3527 154.618 20.1357 154.618 19.8771C154.618 19.6584 154.533 19.4777 154.364 19.3352C154.198 19.1927 153.94 19.0833 153.589 19.0071L152.286 18.7337C151.554 18.5812 151.012 18.3243 150.66 17.9631C150.309 17.5985 150.135 17.1378 150.138 16.581C150.135 16.1103 150.263 15.7027 150.521 15.358C150.783 15.0099 151.146 14.7415 151.61 14.5526C152.077 14.3603 152.616 14.2642 153.226 14.2642C154.121 14.2642 154.825 14.4548 155.339 14.8359C155.856 15.2171 156.175 15.7325 156.298 16.3821Z" fill="#232427"/>
</svg>
