<svg width="119" height="30" viewBox="0 0 119 30" fill="none" xmlns="http://www.w3.org/2000/svg">
<path fill-rule="evenodd" clip-rule="evenodd" d="M14.5847 29.0453C22.6422 29.0453 29.1694 22.5492 29.1694 14.5227C29.1694 6.49617 22.6422 0 14.5847 0C6.5272 0 0 6.49617 0 14.5227C0 22.5492 6.5272 29.0453 14.5847 29.0453ZM14.5847 24.0483C20.4873 24.0483 25.2343 19.3011 25.2343 13.4608C25.2343 7.62051 20.4561 5.18444 14.5847 5.18444C8.68212 5.18444 3.93507 7.58928 3.93507 13.4608C3.90383 19.3323 8.68212 24.0483 14.5847 24.0483Z" fill="#232427"/>
<path fill-rule="evenodd" clip-rule="evenodd" d="M8.27585 15.1789C8.90047 15.1789 9.46262 14.929 9.89985 14.5542C10.1185 14.9602 10.3995 15.3974 10.6494 15.8348C11.2116 16.7717 11.8361 17.7399 12.3983 18.4582C12.6793 18.833 12.9917 19.1766 13.2728 19.4263C13.5226 19.645 13.9598 19.9573 14.4596 19.9573C14.9592 19.9573 15.3964 19.645 15.6463 19.4263C15.9586 19.1766 16.2709 18.833 16.552 18.4894C17.1453 17.7711 17.8012 16.8029 18.3946 15.866C18.6757 15.3974 18.9568 14.9602 19.2066 14.523C19.6438 14.929 20.2372 15.2101 20.8618 15.2101C22.1734 15.2101 23.2666 14.1482 23.2666 12.8364C23.2666 11.5248 22.2047 10.4629 20.8618 10.4629C19.8 10.4629 18.863 11.1812 18.582 12.1494C18.5196 12.2431 18.457 12.368 18.3946 12.493C18.0198 13.18 17.4889 14.0858 16.9268 14.9914C16.3646 15.8972 15.74 16.8029 15.209 17.4276C14.928 17.7399 14.7093 17.9897 14.522 18.1459C14.4908 18.1771 14.4596 18.1771 14.4596 18.2083C14.4283 18.2083 14.4283 18.1771 14.397 18.1459C14.2097 17.9897 13.9911 17.7711 13.7412 17.4276C13.2416 16.7717 12.6481 15.8972 12.1172 14.9914C11.5863 14.0858 11.0866 13.18 10.7118 12.493C10.6494 12.3992 10.6181 12.3056 10.5869 12.2431C10.3058 11.2124 9.36893 10.4629 8.27585 10.4629C6.96417 10.4629 5.87109 11.5248 5.87109 12.8364C5.87109 14.117 6.93294 15.1789 8.27585 15.1789Z" fill="#232427"/>
<path d="M44.8487 11.8182V22H43.0043V11.8182H44.8487ZM48.5662 17.5256V22H46.7665V14.3636H48.4867V15.6612H48.5762C48.7518 15.2337 49.0319 14.8939 49.4164 14.642C49.8042 14.3902 50.2831 14.2642 50.8532 14.2642C51.3801 14.2642 51.8392 14.3769 52.2303 14.6023C52.6247 14.8277 52.9296 15.1541 53.1451 15.5817C53.3638 16.0092 53.4715 16.5279 53.4682 17.1378V22H51.6685V17.4162C51.6685 16.9058 51.5359 16.5064 51.2708 16.218C51.0089 15.9297 50.646 15.7855 50.182 15.7855C49.8671 15.7855 49.5871 15.8551 49.3418 15.9943C49.0998 16.1302 48.9093 16.3274 48.7701 16.5859C48.6342 16.8445 48.5662 17.1577 48.5662 17.5256ZM58.1316 22.1342C57.5317 22.1342 56.9947 21.9801 56.5208 21.6719C56.0468 21.3636 55.6723 20.9162 55.3972 20.3295C55.1221 19.7429 54.9846 19.0303 54.9846 18.1918C54.9846 17.3433 55.1238 16.6274 55.4022 16.044C55.6839 15.4574 56.0634 15.0149 56.5407 14.7166C57.0179 14.415 57.5499 14.2642 58.1365 14.2642C58.584 14.2642 58.9519 14.3404 59.2402 14.4929C59.5286 14.642 59.7573 14.8227 59.9263 15.0348C60.0953 15.2436 60.2263 15.4408 60.3191 15.6264H60.3936V11.8182H62.1983V22H60.4284V20.7969H60.3191C60.2263 20.9825 60.092 21.1797 59.9164 21.3885C59.7407 21.594 59.5087 21.7696 59.2203 21.9155C58.932 22.0613 58.5691 22.1342 58.1316 22.1342ZM58.6337 20.6577C59.0149 20.6577 59.3397 20.5549 59.6081 20.3494C59.8766 20.1406 60.0804 19.8506 60.2196 19.4794C60.3588 19.1082 60.4284 18.6757 60.4284 18.1818C60.4284 17.688 60.3588 17.2588 60.2196 16.8942C60.0837 16.5296 59.8816 16.2462 59.6131 16.044C59.348 15.8419 59.0215 15.7408 58.6337 15.7408C58.2327 15.7408 57.8979 15.8452 57.6294 16.054C57.361 16.2628 57.1588 16.5511 57.0229 16.919C56.887 17.2869 56.8191 17.7079 56.8191 18.1818C56.8191 18.6591 56.887 19.085 57.0229 19.4595C57.1621 19.8307 57.3659 20.1241 57.6344 20.3395C57.9062 20.5516 58.2393 20.6577 58.6337 20.6577ZM67.4968 22.1491C66.7312 22.1491 66.07 21.9901 65.5131 21.6719C64.9596 21.3504 64.5337 20.8963 64.2354 20.3097C63.9371 19.7197 63.788 19.0253 63.788 18.2266C63.788 17.4411 63.9371 16.7517 64.2354 16.1584C64.5371 15.5618 64.958 15.0978 65.4982 14.7663C66.0385 14.4316 66.6732 14.2642 67.4023 14.2642C67.873 14.2642 68.3171 14.3404 68.7347 14.4929C69.1557 14.642 69.5269 14.8741 69.8484 15.1889C70.1732 15.5038 70.4284 15.9048 70.614 16.392C70.7996 16.8759 70.8924 17.4527 70.8924 18.1222V18.674H64.6332V17.4609H69.1673C69.1639 17.1162 69.0894 16.8097 68.9435 16.5412C68.7977 16.2694 68.5939 16.0556 68.332 15.8999C68.0735 15.7441 67.7719 15.6662 67.4272 15.6662C67.0593 15.6662 66.7362 15.7557 66.4577 15.9347C66.1793 16.1103 65.9622 16.3423 65.8065 16.6307C65.654 16.9157 65.5761 17.2289 65.5728 17.5703V18.6293C65.5728 19.0734 65.654 19.4545 65.8164 19.7727C65.9788 20.0876 66.2058 20.3295 66.4975 20.4986C66.7892 20.6643 67.1306 20.7472 67.5217 20.7472C67.7835 20.7472 68.0205 20.7107 68.2326 20.6378C68.4447 20.5616 68.6287 20.4505 68.7844 20.3047C68.9402 20.1589 69.0579 19.9782 69.1374 19.7628L70.8178 19.9517C70.7118 20.3958 70.5096 20.7836 70.2113 21.1151C69.9163 21.4432 69.5385 21.6984 69.0778 21.8807C68.6171 22.0597 68.0901 22.1491 67.4968 22.1491ZM73.7225 14.3636L75.2637 17.1825L76.8297 14.3636H78.7338L76.432 18.1818L78.7736 22H76.8794L75.2637 19.2507L73.6628 22H71.7537L74.0804 18.1818L71.8134 14.3636H73.7225ZM92.3933 15.2536H90.5339C90.4809 14.9486 90.3831 14.6785 90.2406 14.4432C90.0981 14.2045 89.9208 14.0024 89.7086 13.8366C89.4965 13.6709 89.2546 13.5466 88.9828 13.4638C88.7143 13.3776 88.4243 13.3345 88.1127 13.3345C87.5592 13.3345 87.0687 13.4737 86.6412 13.7521C86.2136 14.0272 85.8788 14.4316 85.6369 14.9652C85.3949 15.4955 85.274 16.1435 85.274 16.9091C85.274 17.688 85.3949 18.3442 85.6369 18.8778C85.8822 19.4081 86.2169 19.8092 86.6412 20.081C87.0687 20.3494 87.5576 20.4837 88.1078 20.4837C88.4127 20.4837 88.6977 20.4439 88.9629 20.3643C89.2314 20.2815 89.4717 20.1605 89.6838 20.0014C89.8992 19.8423 90.0798 19.6468 90.2257 19.4148C90.3748 19.1828 90.4776 18.9176 90.5339 18.6193L92.3933 18.6293C92.3237 19.1132 92.1729 19.5672 91.9409 19.9915C91.7122 20.4157 91.4122 20.7902 91.041 21.1151C90.6698 21.4366 90.2356 21.6884 89.7385 21.8707C89.2413 22.0497 88.6895 22.1392 88.0829 22.1392C87.188 22.1392 86.3893 21.9321 85.6866 21.5178C84.984 21.1035 84.4305 20.5052 84.0261 19.723C83.6217 18.9408 83.4196 18.0028 83.4196 16.9091C83.4196 15.812 83.6234 14.8741 84.0311 14.0952C84.4387 13.313 84.9939 12.7147 85.6966 12.3004C86.3992 11.8861 87.1947 11.679 88.0829 11.679C88.6497 11.679 89.1767 11.7585 89.6639 11.9176C90.1511 12.0767 90.5853 12.3104 90.9664 12.6186C91.3476 12.9235 91.6608 13.2981 91.9061 13.7422C92.1547 14.183 92.3171 14.6868 92.3933 15.2536ZM97.3338 22.1491C96.5881 22.1491 95.9418 21.9851 95.3949 21.657C94.848 21.3288 94.4238 20.8698 94.1222 20.2798C93.8239 19.6899 93.6747 19.0005 93.6747 18.2116C93.6747 17.4228 93.8239 16.7318 94.1222 16.1385C94.4238 15.5452 94.848 15.0845 95.3949 14.7564C95.9418 14.4283 96.5881 14.2642 97.3338 14.2642C98.0795 14.2642 98.7259 14.4283 99.2727 14.7564C99.8196 15.0845 100.242 15.5452 100.54 16.1385C100.842 16.7318 100.993 17.4228 100.993 18.2116C100.993 19.0005 100.842 19.6899 100.54 20.2798C100.242 20.8698 99.8196 21.3288 99.2727 21.657C98.7259 21.9851 98.0795 22.1491 97.3338 22.1491ZM97.3438 20.7074C97.7481 20.7074 98.0862 20.5964 98.358 20.3743C98.6297 20.1489 98.8319 19.8473 98.9645 19.4695C99.1004 19.0916 99.1683 18.6707 99.1683 18.2067C99.1683 17.7393 99.1004 17.3168 98.9645 16.9389C98.8319 16.5578 98.6297 16.2545 98.358 16.0291C98.0862 15.8037 97.7481 15.6911 97.3438 15.6911C96.9295 15.6911 96.5848 15.8037 96.3097 16.0291C96.0379 16.2545 95.834 16.5578 95.6982 16.9389C95.5656 17.3168 95.4993 17.7393 95.4993 18.2067C95.4993 18.6707 95.5656 19.0916 95.6982 19.4695C95.834 19.8473 96.0379 20.1489 96.3097 20.3743C96.5848 20.5964 96.9295 20.7074 97.3438 20.7074ZM105.851 22.1491C105.106 22.1491 104.459 21.9851 103.912 21.657C103.366 21.3288 102.941 20.8698 102.64 20.2798C102.341 19.6899 102.192 19.0005 102.192 18.2116C102.192 17.4228 102.341 16.7318 102.64 16.1385C102.941 15.5452 103.366 15.0845 103.912 14.7564C104.459 14.4283 105.106 14.2642 105.851 14.2642C106.597 14.2642 107.243 14.4283 107.79 14.7564C108.337 15.0845 108.76 15.5452 109.058 16.1385C109.36 16.7318 109.51 17.4228 109.51 18.2116C109.51 19.0005 109.36 19.6899 109.058 20.2798C108.76 20.8698 108.337 21.3288 107.79 21.657C107.243 21.9851 106.597 22.1491 105.851 22.1491ZM105.861 20.7074C106.266 20.7074 106.604 20.5964 106.876 20.3743C107.147 20.1489 107.349 19.8473 107.482 19.4695C107.618 19.0916 107.686 18.6707 107.686 18.2067C107.686 17.7393 107.618 17.3168 107.482 16.9389C107.349 16.5578 107.147 16.2545 106.876 16.0291C106.604 15.8037 106.266 15.6911 105.861 15.6911C105.447 15.6911 105.102 15.8037 104.827 16.0291C104.555 16.2545 104.352 16.5578 104.216 16.9389C104.083 17.3168 104.017 17.7393 104.017 18.2067C104.017 18.6707 104.083 19.0916 104.216 19.4695C104.352 19.8473 104.555 20.1489 104.827 20.3743C105.102 20.5964 105.447 20.7074 105.861 20.7074ZM111.038 24.8636V14.3636H112.808V15.6264H112.912C113.005 15.4408 113.136 15.2436 113.305 15.0348C113.474 14.8227 113.703 14.642 113.991 14.4929C114.279 14.3404 114.647 14.2642 115.095 14.2642C115.685 14.2642 116.217 14.415 116.691 14.7166C117.168 15.0149 117.546 15.4574 117.824 16.044C118.106 16.6274 118.247 17.3433 118.247 18.1918C118.247 19.0303 118.109 19.7429 117.834 20.3295C117.559 20.9162 117.185 21.3636 116.711 21.6719C116.237 21.9801 115.7 22.1342 115.1 22.1342C114.662 22.1342 114.299 22.0613 114.011 21.9155C113.723 21.7696 113.491 21.594 113.315 21.3885C113.143 21.1797 113.008 20.9825 112.912 20.7969H112.838V24.8636H111.038ZM112.803 18.1818C112.803 18.6757 112.873 19.1082 113.012 19.4794C113.154 19.8506 113.358 20.1406 113.623 20.3494C113.892 20.5549 114.217 20.6577 114.598 20.6577C114.995 20.6577 115.328 20.5516 115.597 20.3395C115.865 20.1241 116.068 19.8307 116.203 19.4595C116.343 19.085 116.412 18.6591 116.412 18.1818C116.412 17.7079 116.344 17.2869 116.208 16.919C116.073 16.5511 115.87 16.2628 115.602 16.054C115.333 15.8452 114.999 15.7408 114.598 15.7408C114.213 15.7408 113.887 15.8419 113.618 16.044C113.35 16.2462 113.146 16.5296 113.007 16.8942C112.871 17.2588 112.803 17.688 112.803 18.1818Z" fill="#232427"/>
</svg>
